<?xml version="1.0" encoding="utf-8"?>
<!-- Generator: Adobe Illustrator 27.5.0, SVG Export Plug-In . SVG Version: 6.00 Build 0)  -->
<svg version="1.1" xmlns="http://www.w3.org/2000/svg" xmlns:xlink="http://www.w3.org/1999/xlink" x="0px" y="0px"
	 viewBox="0 0 450 450" style="enable-background:new 0 0 450 450;" xml:space="preserve">
<g id="shadows">
	
		<radialGradient id="SVGID_1_" cx="69.5496" cy="86639.3906" r="23.4655" gradientTransform="matrix(1 0 0 0.1173 0 -10057.3584)" gradientUnits="userSpaceOnUse">
		<stop  offset="0" style="stop-color:#FFC042"/>
		<stop  offset="0.0162" style="stop-color:#FFC247"/>
		<stop  offset="0.2071" style="stop-color:#FFD47E"/>
		<stop  offset="0.3929" style="stop-color:#FFE4AD"/>
		<stop  offset="0.5692" style="stop-color:#FFEFD0"/>
		<stop  offset="0.7338" style="stop-color:#FFF8EA"/>
		<stop  offset="0.8821" style="stop-color:#FFFDFA"/>
		<stop  offset="1" style="stop-color:#FFFFFF"/>
	</radialGradient>
	<path style="fill:url(#SVGID_1_);" d="M95.878,104.489c0,1.939-11.787,3.51-26.328,3.51s-26.329-1.571-26.329-3.51
		c0-1.94,11.788-3.511,26.329-3.511S95.878,102.55,95.878,104.489z"/>
	
		<radialGradient id="SVGID_00000017491165226217518050000003680051304414230446_" cx="162.7363" cy="86639.3906" r="23.4658" gradientTransform="matrix(1 0 0 0.1173 0 -10057.3584)" gradientUnits="userSpaceOnUse">
		<stop  offset="0" style="stop-color:#FFC042"/>
		<stop  offset="0.0162" style="stop-color:#FFC247"/>
		<stop  offset="0.2071" style="stop-color:#FFD47E"/>
		<stop  offset="0.3929" style="stop-color:#FFE4AD"/>
		<stop  offset="0.5692" style="stop-color:#FFEFD0"/>
		<stop  offset="0.7338" style="stop-color:#FFF8EA"/>
		<stop  offset="0.8821" style="stop-color:#FFFDFA"/>
		<stop  offset="1" style="stop-color:#FFFFFF"/>
	</radialGradient>
	<path style="fill:url(#SVGID_00000017491165226217518050000003680051304414230446_);" d="M189.065,104.489
		c0,1.939-11.788,3.51-26.329,3.51c-14.54,0-26.329-1.571-26.329-3.51c0-1.94,11.788-3.511,26.329-3.511
		C177.277,100.979,189.065,102.55,189.065,104.489z"/>
	
		<radialGradient id="SVGID_00000057144911357649507230000012081353341769846711_" cx="261.9215" cy="86640.6328" r="23.4651" gradientTransform="matrix(1.4008 -0.016 0.0013 0.1173 -220.7675 -10052.5342)" gradientUnits="userSpaceOnUse">
		<stop  offset="0" style="stop-color:#FFC042"/>
		<stop  offset="0.0162" style="stop-color:#FFC247"/>
		<stop  offset="0.2071" style="stop-color:#FFD47E"/>
		<stop  offset="0.3929" style="stop-color:#FFE4AD"/>
		<stop  offset="0.5692" style="stop-color:#FFEFD0"/>
		<stop  offset="0.7338" style="stop-color:#FFF8EA"/>
		<stop  offset="0.8821" style="stop-color:#FFFDFA"/>
		<stop  offset="1" style="stop-color:#FFFFFF"/>
	</radialGradient>
	<path style="fill:url(#SVGID_00000057144911357649507230000012081353341769846711_);" d="M299.023,104.068
		c0.022,1.939-16.472,3.699-36.84,3.932c-20.367,0.232-36.898-1.15-36.919-3.089c-0.023-1.939,16.472-3.699,36.839-3.932
		C282.472,100.746,299.003,102.129,299.023,104.068z"/>
	
		<radialGradient id="SVGID_00000062181308213166424650000009945774080076653202_" cx="69.5496" cy="87884.7656" r="23.4634" gradientTransform="matrix(1 0 0 0.1386 0 -11970.5957)" gradientUnits="userSpaceOnUse">
		<stop  offset="0" style="stop-color:#FFC042"/>
		<stop  offset="0.0162" style="stop-color:#FFC247"/>
		<stop  offset="0.2071" style="stop-color:#FFD47E"/>
		<stop  offset="0.3929" style="stop-color:#FFE4AD"/>
		<stop  offset="0.5692" style="stop-color:#FFEFD0"/>
		<stop  offset="0.7338" style="stop-color:#FFF8EA"/>
		<stop  offset="0.8821" style="stop-color:#FFFDFA"/>
		<stop  offset="1" style="stop-color:#FFFFFF"/>
	</radialGradient>
	<path style="fill:url(#SVGID_00000062181308213166424650000009945774080076653202_);" d="M95.878,210.76
		c0,2.292-11.787,4.149-26.328,4.149s-26.329-1.857-26.329-4.149s11.788-4.149,26.329-4.149S95.878,208.469,95.878,210.76z"/>
	
		<radialGradient id="SVGID_00000129186816541277285560000008403992092527079813_" cx="171.6723" cy="87884.7656" r="23.4633" gradientTransform="matrix(1 0 0 0.1386 0 -11970.5957)" gradientUnits="userSpaceOnUse">
		<stop  offset="0" style="stop-color:#FFC042"/>
		<stop  offset="0.0162" style="stop-color:#FFC247"/>
		<stop  offset="0.2071" style="stop-color:#FFD47E"/>
		<stop  offset="0.3929" style="stop-color:#FFE4AD"/>
		<stop  offset="0.5692" style="stop-color:#FFEFD0"/>
		<stop  offset="0.7338" style="stop-color:#FFF8EA"/>
		<stop  offset="0.8821" style="stop-color:#FFFDFA"/>
		<stop  offset="1" style="stop-color:#FFFFFF"/>
	</radialGradient>
	<path style="fill:url(#SVGID_00000129186816541277285560000008403992092527079813_);" d="M198,210.76
		c0,2.292-11.787,4.149-26.329,4.149c-14.541,0-26.328-1.857-26.328-4.149s11.787-4.149,26.328-4.149
		C186.213,206.611,198,208.469,198,210.76z"/>
	
		<radialGradient id="SVGID_00000049909335490991227300000005275649504862633638_" cx="265.9736" cy="87884.7656" r="23.4633" gradientTransform="matrix(1 0 0 0.1386 0 -11970.5957)" gradientUnits="userSpaceOnUse">
		<stop  offset="0" style="stop-color:#FFC042"/>
		<stop  offset="0.0162" style="stop-color:#FFC247"/>
		<stop  offset="0.2071" style="stop-color:#FFD47E"/>
		<stop  offset="0.3929" style="stop-color:#FFE4AD"/>
		<stop  offset="0.5692" style="stop-color:#FFEFD0"/>
		<stop  offset="0.7338" style="stop-color:#FFF8EA"/>
		<stop  offset="0.8821" style="stop-color:#FFFDFA"/>
		<stop  offset="1" style="stop-color:#FFFFFF"/>
	</radialGradient>
	<path style="fill:url(#SVGID_00000049909335490991227300000005275649504862633638_);" d="M292.302,210.76
		c0,2.292-11.787,4.149-26.328,4.149c-14.541,0-26.328-1.857-26.328-4.149s11.787-4.149,26.328-4.149
		C280.515,206.611,292.302,208.469,292.302,210.76z"/>
	
		<radialGradient id="SVGID_00000070800293789113609130000015712227114847150499_" cx="367.4575" cy="87884.7656" r="23.4639" gradientTransform="matrix(1 0 0 0.1386 0 -11970.5957)" gradientUnits="userSpaceOnUse">
		<stop  offset="0" style="stop-color:#FFC042"/>
		<stop  offset="0.0162" style="stop-color:#FFC247"/>
		<stop  offset="0.2071" style="stop-color:#FFD47E"/>
		<stop  offset="0.3929" style="stop-color:#FFE4AD"/>
		<stop  offset="0.5692" style="stop-color:#FFEFD0"/>
		<stop  offset="0.7338" style="stop-color:#FFF8EA"/>
		<stop  offset="0.8821" style="stop-color:#FFFDFA"/>
		<stop  offset="1" style="stop-color:#FFFFFF"/>
	</radialGradient>
	<path style="fill:url(#SVGID_00000070800293789113609130000015712227114847150499_);" d="M393.786,210.76
		c0,2.292-11.788,4.149-26.328,4.149c-14.541,0-26.329-1.857-26.329-4.149s11.788-4.149,26.329-4.149
		C381.998,206.611,393.786,208.469,393.786,210.76z"/>
	
		<radialGradient id="SVGID_00000091704996109097532360000015950613859946710942_" cx="73.3792" cy="89113.6875" r="23.4657" gradientTransform="matrix(1 0 0 0.1493 0 -12985.4658)" gradientUnits="userSpaceOnUse">
		<stop  offset="0" style="stop-color:#FFC042"/>
		<stop  offset="0.0162" style="stop-color:#FFC247"/>
		<stop  offset="0.2071" style="stop-color:#FFD47E"/>
		<stop  offset="0.3929" style="stop-color:#FFE4AD"/>
		<stop  offset="0.5692" style="stop-color:#FFEFD0"/>
		<stop  offset="0.7338" style="stop-color:#FFF8EA"/>
		<stop  offset="0.8821" style="stop-color:#FFFDFA"/>
		<stop  offset="1" style="stop-color:#FFFFFF"/>
	</radialGradient>
	<path style="fill:url(#SVGID_00000091704996109097532360000015950613859946710942_);" d="M99.707,317.16
		c0,2.468-11.788,4.465-26.329,4.465s-26.328-1.997-26.328-4.465c0-2.468,11.787-4.469,26.328-4.469S99.707,314.692,99.707,317.16z"
		/>
	
		<radialGradient id="SVGID_00000145759391242409786700000001593391930056410047_" cx="169.2793" cy="89113.6875" r="23.4658" gradientTransform="matrix(1 0 0 0.1493 0 -12985.4658)" gradientUnits="userSpaceOnUse">
		<stop  offset="0" style="stop-color:#FFC042"/>
		<stop  offset="0.0162" style="stop-color:#FFC247"/>
		<stop  offset="0.2071" style="stop-color:#FFD47E"/>
		<stop  offset="0.3929" style="stop-color:#FFE4AD"/>
		<stop  offset="0.5692" style="stop-color:#FFEFD0"/>
		<stop  offset="0.7338" style="stop-color:#FFF8EA"/>
		<stop  offset="0.8821" style="stop-color:#FFFDFA"/>
		<stop  offset="1" style="stop-color:#FFFFFF"/>
	</radialGradient>
	<path style="fill:url(#SVGID_00000145759391242409786700000001593391930056410047_);" d="M195.608,317.16
		c0,2.468-11.788,4.465-26.329,4.465s-26.329-1.997-26.329-4.465c0-2.468,11.788-4.469,26.329-4.469S195.608,314.692,195.608,317.16
		z"/>
	
		<radialGradient id="SVGID_00000051343970944853086230000012789295974477938322_" cx="269.8042" cy="89113.6875" r="23.4656" gradientTransform="matrix(1 0 0 0.1493 0 -12985.4658)" gradientUnits="userSpaceOnUse">
		<stop  offset="0" style="stop-color:#FFC042"/>
		<stop  offset="0.0162" style="stop-color:#FFC247"/>
		<stop  offset="0.2071" style="stop-color:#FFD47E"/>
		<stop  offset="0.3929" style="stop-color:#FFE4AD"/>
		<stop  offset="0.5692" style="stop-color:#FFEFD0"/>
		<stop  offset="0.7338" style="stop-color:#FFF8EA"/>
		<stop  offset="0.8821" style="stop-color:#FFFDFA"/>
		<stop  offset="1" style="stop-color:#FFFFFF"/>
	</radialGradient>
	<path style="fill:url(#SVGID_00000051343970944853086230000012789295974477938322_);" d="M296.133,317.16
		c0,2.468-11.789,4.465-26.328,4.465c-14.541,0-26.329-1.997-26.329-4.465c0-2.468,11.788-4.469,26.329-4.469
		C284.344,312.691,296.133,314.692,296.133,317.16z"/>
	
		<radialGradient id="SVGID_00000082327987348496982530000005695122870166384316_" cx="377.0317" cy="89113.6875" r="23.4661" gradientTransform="matrix(1 0 0 0.1493 0 -12985.4658)" gradientUnits="userSpaceOnUse">
		<stop  offset="0" style="stop-color:#FFC042"/>
		<stop  offset="0.0162" style="stop-color:#FFC247"/>
		<stop  offset="0.2071" style="stop-color:#FFD47E"/>
		<stop  offset="0.3929" style="stop-color:#FFE4AD"/>
		<stop  offset="0.5692" style="stop-color:#FFEFD0"/>
		<stop  offset="0.7338" style="stop-color:#FFF8EA"/>
		<stop  offset="0.8821" style="stop-color:#FFFDFA"/>
		<stop  offset="1" style="stop-color:#FFFFFF"/>
	</radialGradient>
	<path style="fill:url(#SVGID_00000082327987348496982530000005695122870166384316_);" d="M403.36,317.16
		c0,2.468-11.788,4.465-26.328,4.465c-14.541,0-26.329-1.997-26.329-4.465c0-2.468,11.788-4.469,26.329-4.469
		C391.572,312.691,403.36,314.692,403.36,317.16z"/>
	
		<radialGradient id="SVGID_00000041986455432770903490000010044259755797563042_" cx="74.3366" cy="90325.1641" r="23.466" gradientTransform="matrix(1 0 0 0.1173 0 -10175.2559)" gradientUnits="userSpaceOnUse">
		<stop  offset="0" style="stop-color:#FFC042"/>
		<stop  offset="0.0162" style="stop-color:#FFC247"/>
		<stop  offset="0.2071" style="stop-color:#FFD47E"/>
		<stop  offset="0.3929" style="stop-color:#FFE4AD"/>
		<stop  offset="0.5692" style="stop-color:#FFEFD0"/>
		<stop  offset="0.7338" style="stop-color:#FFF8EA"/>
		<stop  offset="0.8821" style="stop-color:#FFFDFA"/>
		<stop  offset="1" style="stop-color:#FFFFFF"/>
	</radialGradient>
	<path style="fill:url(#SVGID_00000041986455432770903490000010044259755797563042_);" d="M100.665,418.893
		c0,1.938-11.788,3.51-26.328,3.51c-14.541,0-26.329-1.571-26.329-3.51c0-1.94,11.788-3.51,26.329-3.51
		C88.877,415.383,100.665,416.953,100.665,418.893z"/>
	
		<radialGradient id="SVGID_00000163780498512609527580000013368104648154647989_" cx="162.7363" cy="90325.1641" r="23.4663" gradientTransform="matrix(1 0 0 0.1173 0 -10175.2559)" gradientUnits="userSpaceOnUse">
		<stop  offset="0" style="stop-color:#FFC042"/>
		<stop  offset="0.0162" style="stop-color:#FFC247"/>
		<stop  offset="0.2071" style="stop-color:#FFD47E"/>
		<stop  offset="0.3929" style="stop-color:#FFE4AD"/>
		<stop  offset="0.5692" style="stop-color:#FFEFD0"/>
		<stop  offset="0.7338" style="stop-color:#FFF8EA"/>
		<stop  offset="0.8821" style="stop-color:#FFFDFA"/>
		<stop  offset="1" style="stop-color:#FFFFFF"/>
	</radialGradient>
	<path style="fill:url(#SVGID_00000163780498512609527580000013368104648154647989_);" d="M189.065,418.893
		c0,1.938-11.788,3.51-26.329,3.51c-14.54,0-26.329-1.571-26.329-3.51c0-1.94,11.788-3.51,26.329-3.51
		C177.277,415.383,189.065,416.953,189.065,418.893z"/>
	
		<radialGradient id="SVGID_00000078038050646659129320000008808924160133951925_" cx="275.5479" cy="90325.1641" r="23.4659" gradientTransform="matrix(1 0 0 0.1173 0 -10175.2559)" gradientUnits="userSpaceOnUse">
		<stop  offset="0" style="stop-color:#FFC042"/>
		<stop  offset="0.0162" style="stop-color:#FFC247"/>
		<stop  offset="0.2071" style="stop-color:#FFD47E"/>
		<stop  offset="0.3929" style="stop-color:#FFE4AD"/>
		<stop  offset="0.5692" style="stop-color:#FFEFD0"/>
		<stop  offset="0.7338" style="stop-color:#FFF8EA"/>
		<stop  offset="0.8821" style="stop-color:#FFFDFA"/>
		<stop  offset="1" style="stop-color:#FFFFFF"/>
	</radialGradient>
	<path style="fill:url(#SVGID_00000078038050646659129320000008808924160133951925_);" d="M301.876,418.893
		c0,1.938-11.787,3.51-26.328,3.51c-14.54,0-26.328-1.571-26.328-3.51c0-1.94,11.788-3.51,26.328-3.51
		C290.089,415.383,301.876,416.953,301.876,418.893z"/>
	
		<radialGradient id="SVGID_00000017488731610769851240000014803845823634522510_" cx="373.8394" cy="90325.1641" r="23.4661" gradientTransform="matrix(1 0 0 0.1173 0 -10175.2559)" gradientUnits="userSpaceOnUse">
		<stop  offset="0" style="stop-color:#FFC042"/>
		<stop  offset="0.0162" style="stop-color:#FFC247"/>
		<stop  offset="0.2071" style="stop-color:#FFD47E"/>
		<stop  offset="0.3929" style="stop-color:#FFE4AD"/>
		<stop  offset="0.5692" style="stop-color:#FFEFD0"/>
		<stop  offset="0.7338" style="stop-color:#FFF8EA"/>
		<stop  offset="0.8821" style="stop-color:#FFFDFA"/>
		<stop  offset="1" style="stop-color:#FFFFFF"/>
	</radialGradient>
	<path style="fill:url(#SVGID_00000017488731610769851240000014803845823634522510_);" d="M400.168,418.893
		c0,1.938-11.788,3.51-26.328,3.51c-14.541,0-26.329-1.571-26.329-3.51c0-1.94,11.788-3.51,26.329-3.51
		C388.38,415.383,400.168,416.953,400.168,418.893z"/>
	
		<radialGradient id="SVGID_00000183219144828788041900000009501216331486872757_" cx="361.9562" cy="86639.3906" r="23.4644" gradientTransform="matrix(1.4879 0 0 0.1173 -166.2299 -10057.3584)" gradientUnits="userSpaceOnUse">
		<stop  offset="0" style="stop-color:#FFC042"/>
		<stop  offset="0.0162" style="stop-color:#FFC247"/>
		<stop  offset="0.2071" style="stop-color:#FFD47E"/>
		<stop  offset="0.3929" style="stop-color:#FFE4AD"/>
		<stop  offset="0.5692" style="stop-color:#FFEFD0"/>
		<stop  offset="0.7338" style="stop-color:#FFF8EA"/>
		<stop  offset="0.8821" style="stop-color:#FFFDFA"/>
		<stop  offset="1" style="stop-color:#FFFFFF"/>
	</radialGradient>
	<path style="fill:url(#SVGID_00000183219144828788041900000009501216331486872757_);" d="M411.498,104.489
		c0,1.939-17.539,3.51-39.173,3.51c-21.635,0-39.174-1.571-39.174-3.51c0-1.94,17.539-3.511,39.174-3.511
		C393.959,100.979,411.498,102.55,411.498,104.489z"/>
</g>
<g id="flames">
	<g>
		
			<linearGradient id="SVGID_00000087404197104128072790000007748825034144433086_" gradientUnits="userSpaceOnUse" x1="69.057" y1="151.3484" x2="77.4547" y2="204.2223">
			<stop  offset="0" style="stop-color:#FF1F00"/>
			<stop  offset="1" style="stop-color:#FFEE00"/>
		</linearGradient>
		<path style="fill:url(#SVGID_00000087404197104128072790000007748825034144433086_);" d="M64.168,152.138
			c-5.106,4.468-9.574,18.191-5.161,25.171c-5.057-14.875,21.908-23.222,12.111-38.509c-2.05-3.199-6.468-5.591-10.179-5.817
			c-0.245,0.009-0.248,0.011-0.008,0.006c12.502-2.531,27.377,14.203,28.136,25.581c0.229,3.426-0.177,6.999-1.219,10.272
			c-0.134,0.107,0.769,0.316,0.893,0.21c3.933-4.191,7.978-9.574,3.51-19.147c10.212,11.17,21.382,53.32-20.261,53.32
			C39.276,203.225,35.126,163.947,64.168,152.138z"/>
		
			<linearGradient id="SVGID_00000101812361976969983700000006186240901848938425_" gradientUnits="userSpaceOnUse" x1="73.5676" y1="132.3524" x2="73.5676" y2="199.7162">
			<stop  offset="0" style="stop-color:#FF1F00"/>
			<stop  offset="1" style="stop-color:#FFEE00"/>
		</linearGradient>
		<path style="fill:url(#SVGID_00000101812361976969983700000006186240901848938425_);" d="M59.7,157.564
			c-5.745,7.021-9.254,16.914,1.915,26.169c-4.149-24.893,25.85-21.701,13.084-44.36c9.574,9.255,14.999,20.744,8.297,37.977
			c3.067,0.465,13.403-9.574,12.765-16.275c6.063,9.254,6.702,41.167-23.616,40.848C43.876,201.626,41.51,172.244,59.7,157.564z"/>
		
			<linearGradient id="SVGID_00000059284148529261590470000006024216750467232172_" gradientUnits="userSpaceOnUse" x1="73.7252" y1="166.9653" x2="74.3637" y2="198.8782">
			<stop  offset="0" style="stop-color:#000000"/>
			<stop  offset="1" style="stop-color:#FF8400"/>
		</linearGradient>
		<path style="fill:url(#SVGID_00000059284148529261590470000006024216750467232172_);" d="M74.062,200.966
			c-16.595,0-24.893-15-21.063-27.445c1.596,8.297,5.106,11.808,11.169,14.042c-1.165-23.568,18.51-19.467,16.914-32.551
			c5.106,12.446,0.957,22.02-3.191,29.679c6.382-3.829,14.361,0.319,17.871-9.893C96.475,185.424,90.657,200.966,74.062,200.966z"/>
	</g>
	<g>
		
			<linearGradient id="SVGID_00000080166678161831913250000016798882962467192971_" gradientUnits="userSpaceOnUse" x1="367.493" y1="150.9367" x2="375.9567" y2="204.226">
			<stop  offset="0" style="stop-color:#FF1F00"/>
			<stop  offset="1" style="stop-color:#FFEE00"/>
		</linearGradient>
		<path style="fill:url(#SVGID_00000080166678161831913250000016798882962467192971_);" d="M341.608,192.466
			c-11.368-14.209,0.319-59.678,29.997-61.912c-12.765,3.191-21.7,20.424-14.36,31.275c-1.276-6.702,4.787-14.999,14.681-17.872
			c-8.298,4.468-7.978,18.19-2.234,25.531c-0.958-6.701-0.217-10.851,3.511-17.872c2.815-5.305,9.255-7.978,5.65-17.829
			c-0.111-0.117-0.127-0.108-0.017,0c11.6,11.446,17.189,26.812,14.95,38.094c4.309-5.266,7.819-3.99,1.755-20.265
			c14.999,16.914,11.809,35.105,2.554,43.083C384.951,206.03,353.097,206.827,341.608,192.466z"/>
		
			<linearGradient id="SVGID_00000086655752553343925580000009356302092084290990_" gradientUnits="userSpaceOnUse" x1="372.2737" y1="140.4478" x2="372.2737" y2="199.273">
			<stop  offset="0" style="stop-color:#FF1F00"/>
			<stop  offset="1" style="stop-color:#FFEE00"/>
		</linearGradient>
		<path style="fill:url(#SVGID_00000086655752553343925580000009356302092084290990_);" d="M346.355,193.207
			c-9.568-11.961-6.662-42.547,11.21-52.121c-9.255,6.382-6.702,25.211,1.914,33.189c-1.074-5.642-2.553-19.786,5.744-22.658
			c-6.383,5.745-1.915,22.658,7.02,25.531c-3.19-19.148,11.17-23.297,8.936-34.147c8.299,7.339,10.852,29.998,6.383,41.167
			c7.979-13.723,15-6.063,12.447-21.063c7.658,16.595,1.688,25.265-6.104,31.981C382.841,204.624,356.027,205.296,346.355,193.207z"
			/>
		
			<linearGradient id="SVGID_00000145024053640542219750000011083087009560352692_" gradientUnits="userSpaceOnUse" x1="373.6471" y1="160.553" x2="373.6471" y2="205.939">
			<stop  offset="0" style="stop-color:#000000"/>
			<stop  offset="1" style="stop-color:#FF8400"/>
		</linearGradient>
		<path style="fill:url(#SVGID_00000145024053640542219750000011083087009560352692_);" d="M348.008,167.864
			c2.855,13.433,12.109,23.006,20.088,24.283c-3.9-1.63-7.34-7.659-5.425-18.19c2.553,8.298,8.765,11.949,13.403,13.723
			c-2.233-10.851,7.341-17.553,7.021-28.722c3.512,12.446,7.33,24.807,3.512,31.914c5.744-0.319,11.169-7.021,14.041-12.127
			c-1.914,9.574-6.383,22.978-29.063,22.978C354.055,201.721,342.565,184.488,348.008,167.864z"/>
	</g>
	<g>
		<g>
			
				<linearGradient id="SVGID_00000039100058913592818080000005088378114257340290_" gradientUnits="userSpaceOnUse" x1="241.4317" y1="142.0354" x2="241.4578" y2="142.1999">
				<stop  offset="0" style="stop-color:#FF1F00"/>
				<stop  offset="1" style="stop-color:#FFEE00"/>
			</linearGradient>
			<path style="fill:url(#SVGID_00000039100058913592818080000005088378114257340290_);" d="M241.461,142.124
				c0.026,0.02,0.05,0.04,0.076,0.059c-0.018-0.025-0.033-0.05-0.051-0.074C241.304,141.943,241.295,141.948,241.461,142.124z"/>
			
				<linearGradient id="SVGID_00000155125127765135399850000003336817198072246667_" gradientUnits="userSpaceOnUse" x1="263.5873" y1="148.0274" x2="272.524" y2="204.2953">
				<stop  offset="0" style="stop-color:#FF1F00"/>
				<stop  offset="1" style="stop-color:#FFEE00"/>
			</linearGradient>
			<path style="fill:url(#SVGID_00000155125127765135399850000003336817198072246667_);" d="M291.675,165.106
				c-4.671-10.027-28.302-28.042-18.414-39.554c-10.425,3.377-13.765,18.175-11.492,28.106c1.325,5.794,19.115,30.35,0,30.35
				c-9.46,0-5.05-13.501-6.486-21.639c-1.563-8.863-4.117-10.988-11.307-16.45c4.294,5.975,2.393,13.643,0.479,19.388
				c-3.645,10.937-5.619,21.61,3.236,31.677c4.072,4.628,10.098,6.179,16.378,6.088c5.265,0.453,10.573-0.119,16.029-1.477
				C299.669,196.724,299.426,181.742,291.675,165.106z"/>
		</g>
		
			<linearGradient id="SVGID_00000032633713631253300280000008381000552289198271_" gradientUnits="userSpaceOnUse" x1="268.7779" y1="136.0849" x2="268.7779" y2="201.9256">
			<stop  offset="0" style="stop-color:#FF1F00"/>
			<stop  offset="1" style="stop-color:#FFEE00"/>
		</linearGradient>
		<path style="fill:url(#SVGID_00000032633713631253300280000008381000552289198271_);" d="M256.054,201.44
			c-11.753-4.93-11.781-12.982-10.345-22.317c0.971-6.316,7.419-14.601,4.308-24.175c7.898,9.096-3.351,33.749,12.446,33.749
			c16.38,0,11.024-17.276,8.109-25.495c-2.785-7.848-6.194-13.759-2.368-22.709c-0.476,15.652,30.987,29.736,22.98,50.119
			C285.919,204.016,264.014,204.779,256.054,201.44z"/>
		
			<linearGradient id="SVGID_00000034081742864908356890000011969291609950370957_" gradientUnits="userSpaceOnUse" x1="269.209" y1="161.8903" x2="269.209" y2="199.7195">
			<stop  offset="0" style="stop-color:#000000"/>
			<stop  offset="1" style="stop-color:#FF8400"/>
		</linearGradient>
		<path style="fill:url(#SVGID_00000034081742864908356890000011969291609950370957_);" d="M249.538,175.294
			c1.915,24.893,27.765,22.02,27.765,1.436c0-4.76-3.83-11.01-4.309-21.541c2.872,11.01,13.848,18.317,16.276,26.807
			c2.25,7.872-3.956,17.316-17.233,19.148C258.154,203.058,245.229,198.75,249.538,175.294z"/>
	</g>
	<g>
		
			<linearGradient id="SVGID_00000137820119636609940160000000647342709148770184_" gradientUnits="userSpaceOnUse" x1="159.7626" y1="44.8464" x2="168.3329" y2="98.8075">
			<stop  offset="0" style="stop-color:#FF1F00"/>
			<stop  offset="1" style="stop-color:#FFEE00"/>
		</linearGradient>
		<path style="fill:url(#SVGID_00000137820119636609940160000000647342709148770184_);" d="M142.631,76.565
			c3.038-16.057,28.244-24.414,1.437-49.306c28.722,6.224,51.221,27.765,40.512,57.915c-2.293,6.454-8.439,12.933-22.8,12.933
			C150.769,98.106,139.28,94.277,142.631,76.565z"/>
		
			<linearGradient id="SVGID_00000116192885567038465500000009206112027126422419_" gradientUnits="userSpaceOnUse" x1="165.4329" y1="24.0078" x2="165.4329" y2="96.1643">
			<stop  offset="0" style="stop-color:#FF1F00"/>
			<stop  offset="1" style="stop-color:#FFEE00"/>
		</linearGradient>
		<path style="fill:url(#SVGID_00000116192885567038465500000009206112027126422419_);" d="M146.839,79.002
			c2.523-13.339,29.311-24.362,7.041-45.042c23.861,5.171,36.704,27.147,27.808,52.194c-1.904,5.362-7.011,10.745-18.941,10.745
			C153.6,96.899,144.056,93.717,146.839,79.002z"/>
		
			<linearGradient id="SVGID_00000056419058347415840450000018313843094013532577_" gradientUnits="userSpaceOnUse" x1="165.5243" y1="44.1803" x2="165.5243" y2="96.2033">
			<stop  offset="0" style="stop-color:#000000"/>
			<stop  offset="1" style="stop-color:#FF8400"/>
		</linearGradient>
		<path style="fill:url(#SVGID_00000056419058347415840450000018313843094013532577_);" d="M151.111,82.022
			c1.675-13.283,26.233-19.535,15.852-34.27c16.41,10.047,20.316,48.447-4.577,48.559C153.891,96.349,149.849,92.044,151.111,82.022
			z"/>
	</g>
	<g>
		<g>
			
				<linearGradient id="SVGID_00000170968975559315131540000015006953279092020394_" gradientUnits="userSpaceOnUse" x1="318.6407" y1="67.5144" x2="323.2201" y2="96.3476" gradientTransform="matrix(-1 0 0 1 716.834 0)">
				<stop  offset="0" style="stop-color:#FF1F00"/>
				<stop  offset="1" style="stop-color:#FFEE00"/>
			</linearGradient>
			<path style="fill:url(#SVGID_00000170968975559315131540000015006953279092020394_);" d="M403.417,70.392
				c1.703,7.232,0.035,9.323-3.403,12.124c6.169-9.146-5.105-13.613,6.169-24.462c-21.271,3.191-28.917,34.734-15.09,37.238
				C405.12,97.832,411.713,86.346,403.417,70.392z"/>
			
				<linearGradient id="SVGID_00000075130822718273338000000006905754727850324637_" gradientUnits="userSpaceOnUse" x1="310.9495" y1="61.0938" x2="326.1168" y2="92.1677" gradientTransform="matrix(-1 0 0 1 716.834 0)">
				<stop  offset="0" style="stop-color:#FF1F00"/>
				<stop  offset="1" style="stop-color:#FFEE00"/>
			</linearGradient>
			<path style="fill:url(#SVGID_00000075130822718273338000000006905754727850324637_);" d="M404.641,80.907
				c-2.97,2.377-4.158,5.05-8.02,4.753c5.308-11.227-4.265-12.716,4.031-24.628c-11.699,6.169-20.474,27.379-10.848,32.758
				C397.036,97.832,404.046,93.383,404.641,80.907z"/>
			
				<linearGradient id="SVGID_00000149358916472212095320000004560871575531766964_" gradientUnits="userSpaceOnUse" x1="316.5896" y1="69.6501" x2="323.1335" y2="91.9572" gradientTransform="matrix(-1 0 0 1 716.834 0)">
				<stop  offset="0" style="stop-color:#000000"/>
				<stop  offset="1" style="stop-color:#FF8400"/>
			</linearGradient>
			<path style="fill:url(#SVGID_00000149358916472212095320000004560871575531766964_);" d="M389.195,91.601
				c4.031,4.032,12.736,1.488,14.222-6.531c-2.765,4.042-7.093,4.156-9.767,2.967c1.96-4.321,2.376-4.752,1.189-17.228
				C393.353,79.126,383.552,85.957,389.195,91.601z"/>
		</g>
		
			<linearGradient id="SVGID_00000172433927811783997300000002201684879615754136_" gradientUnits="userSpaceOnUse" x1="361.7957" y1="45.266" x2="370.4076" y2="99.4883">
			<stop  offset="0" style="stop-color:#FF1F00"/>
			<stop  offset="1" style="stop-color:#FFEE00"/>
		</linearGradient>
		<path style="fill:url(#SVGID_00000172433927811783997300000002201684879615754136_);" d="M351.262,45.449
			c-2.872,10.771,1.554,12.711,1.65,19.936c-0.454-20.893,18.934-22.09,5.77-39.802c15.796,8.617,22.26,22.26,17.951,38.296
			c6.223-4.069,7.898-15.079,1.675-26.568c12.686,9.813,26.655,60.978-9.813,60.795C344.679,97.986,329.002,79.676,351.262,45.449z"
			/>
		
			<linearGradient id="SVGID_00000078752944623027735770000016571268933568019103_" gradientUnits="userSpaceOnUse" x1="366.9161" y1="32.5842" x2="366.9161" y2="92.7465">
			<stop  offset="0" style="stop-color:#FF1F00"/>
			<stop  offset="1" style="stop-color:#FFEE00"/>
		</linearGradient>
		<path style="fill:url(#SVGID_00000078752944623027735770000016571268933568019103_);" d="M348.149,59.81
			c-0.479,7.298,4.256,14.18,9.096,18.43c-6.941-18.908,14.432-28.023,8.616-42.125c9.814,8.138,9.335,27.046,5.267,37.817
			c3.829-9.574,14.52-4.229,13.403-19.387c5.904,16.436,8.691,42.604-16.036,42.604C346.953,97.148,340.97,80.394,348.149,59.81z"/>
		
			<linearGradient id="SVGID_00000129896373105483796890000007749531553635207615_" gradientUnits="userSpaceOnUse" x1="367.1221" y1="42.5283" x2="367.1221" y2="90.5907">
			<stop  offset="0" style="stop-color:#000000"/>
			<stop  offset="1" style="stop-color:#FF8400"/>
		</linearGradient>
		<path style="fill:url(#SVGID_00000129896373105483796890000007749531553635207615_);" d="M348.39,68.188
			c0.238,9.813,9.814,15.079,14.121,14.6c-9.038-18.053,9.335-24.892,7.659-33.509c6.702,13.882-6.462,17.951,2.154,31.594
			c1.676-9.574,12.207-4.547,13.403-17.472c3.111,15.079,2.35,33.03-18.19,33.03C352.22,96.43,343.842,84.941,348.39,68.188z"/>
		<g>
			
				<linearGradient id="SVGID_00000176036150604480477750000006583913263313422494_" gradientUnits="userSpaceOnUse" x1="338.1013" y1="70.8852" x2="342.4652" y2="98.3615">
				<stop  offset="0" style="stop-color:#FF1F00"/>
				<stop  offset="1" style="stop-color:#FFEE00"/>
			</linearGradient>
			<path style="fill:url(#SVGID_00000176036150604480477750000006583913263313422494_);" d="M331.251,73.562
				c-0.095,7.79,1.82,10.423,5.649,12.816c-5.396-8.592,4.912-11.843-5.649-24.629c13.758,7.088,29.314,30.953,14.026,35.4
				C332.067,100.992,326.608,87.813,331.251,73.562z"/>
			
				<linearGradient id="SVGID_00000071536475827937250530000001625438859574982033_" gradientUnits="userSpaceOnUse" x1="331.8001" y1="68.468" x2="344.6544" y2="94.8031">
				<stop  offset="0" style="stop-color:#FF1F00"/>
				<stop  offset="1" style="stop-color:#FFEE00"/>
			</linearGradient>
			<path style="fill:url(#SVGID_00000071536475827937250530000001625438859574982033_);" d="M331.808,84.262
				c2.778,2.224,3.891,4.726,7.504,4.448c-3.893-10.841,1.944-9.451-1.945-20.847c7.781,7.782,19.879,24.019,7.434,28.566
				C339.65,98.312,332.362,95.936,331.808,84.262z"/>
			
				<linearGradient id="SVGID_00000075154148935892256370000009302296620404966034_" gradientUnits="userSpaceOnUse" x1="336.8112" y1="73.3845" x2="343.1311" y2="94.9277">
				<stop  offset="0" style="stop-color:#000000"/>
				<stop  offset="1" style="stop-color:#FF8400"/>
			</linearGradient>
			<path style="fill:url(#SVGID_00000075154148935892256370000009302296620404966034_);" d="M346.474,94.994
				c-3.769,3.777-11.332,0.108-12.723-7.396c2.671,2.849,5.838,4.448,8.34,3.336c-2.558-3.359-3.275-8.385-1.111-16.122
				C340.012,82.548,354.349,87.103,346.474,94.994z"/>
		</g>
	</g>
	<g>
		
			<linearGradient id="SVGID_00000037664039263854305880000011812608890441321893_" gradientUnits="userSpaceOnUse" x1="169.1175" y1="363.0957" x2="169.1175" y2="409.8481">
			<stop  offset="0" style="stop-color:#FF1F00"/>
			<stop  offset="1" style="stop-color:#FFEE00"/>
		</linearGradient>
		<path style="fill:url(#SVGID_00000037664039263854305880000011812608890441321893_);" d="M178.868,386.472
			c20.778-11.306,16.238-36.35,4.452-47.815c9.298,20.619-7.66,35.897-21.257,35.44c8.575-2.11,14.361-7.486,17.111-18.181
			c-3.973,6.416-9.473,8.86-16.314,8.914c-11.206,0.088-18.825,4.835-23.713,15.836c-4.335,9.752-0.377,22.132,14.055,28.11
			c21.389,8.861,55.611-18.333,45.833-41.861C202.395,377.915,188.153,387.004,178.868,386.472z"/>
		
			<linearGradient id="SVGID_00000023274758115769269030000013072090334578408865_" gradientUnits="userSpaceOnUse" x1="166.7879" y1="346.3712" x2="166.7879" y2="405.6449">
			<stop  offset="0" style="stop-color:#FF1F00"/>
			<stop  offset="1" style="stop-color:#FFEE00"/>
		</linearGradient>
		<path style="fill:url(#SVGID_00000023274758115769269030000013072090334578408865_);" d="M162.367,409.999
			c-17.214,0-32.389-23.833-5.5-38.5c-4.56,3.918-7.483,15.607-4.736,19.098c3.055-19.098,28.554-10.515,37.584-30.403
			c0.305,16.5-10.237,25.208-17.722,28.875c8.708,1.834,14.667,1.834,19.356-2.856C188.34,400.222,177.34,409.999,162.367,409.999z"
			/>
		<g>
			
				<linearGradient id="SVGID_00000080903647413684084650000018272021976105662138_" gradientUnits="userSpaceOnUse" x1="147.7012" y1="390.5376" x2="147.7012" y2="390.8042">
				<stop  offset="0" style="stop-color:#000000"/>
				<stop  offset="1" style="stop-color:#FF8400"/>
			</linearGradient>
			<path style="fill:url(#SVGID_00000080903647413684084650000018272021976105662138_);" d="M147.684,390.705
				c0.004,0.033,0.014,0.063,0.018,0.097c0.006-0.032,0.009-0.064,0.016-0.097C147.707,390.478,147.695,390.478,147.684,390.705z"/>
			
				<linearGradient id="SVGID_00000011726973287976226120000010738938602511934361_" gradientUnits="userSpaceOnUse" x1="174.9451" y1="363.9899" x2="161.6288" y2="409.4219">
				<stop  offset="0" style="stop-color:#000000"/>
				<stop  offset="1" style="stop-color:#FF8400"/>
			</linearGradient>
			<path style="fill:url(#SVGID_00000011726973287976226120000010738938602511934361_);" d="M167.562,393.194
				c-0.153-4.126,10.083-14.209,16.958-17.417c-16.958-0.918-32.236,10.235-30.25,20.014c-2.75-1.527-5.652-3.667-4.889-13.292
				c-9.625,15.735,0,27.194,13.444,27.194c11.688,0,22.611-9.319,25.514-18.944C182.841,398.693,172.451,391.055,167.562,393.194z"
				/>
		</g>
	</g>
	<g>
		<g>
			
				<linearGradient id="SVGID_00000098188415110687017930000004870144146498431129_" gradientUnits="userSpaceOnUse" x1="265.5185" y1="44.6388" x2="265.5338" y2="44.7348">
				<stop  offset="0" style="stop-color:#FF1F00"/>
				<stop  offset="1" style="stop-color:#FFEE00"/>
			</linearGradient>
			<path style="fill:url(#SVGID_00000098188415110687017930000004870144146498431129_);" d="M265.552,44.707
				c0.009,0.007,0.015,0.013,0.023,0.02c-0.006-0.009-0.01-0.019-0.014-0.028C265.444,44.579,265.441,44.582,265.552,44.707z"/>
			
				<linearGradient id="SVGID_00000078026192490291257490000000798815073548939176_" gradientUnits="userSpaceOnUse" x1="254.5432" y1="49.9094" x2="263.0774" y2="103.6427">
				<stop  offset="0" style="stop-color:#FF1F00"/>
				<stop  offset="1" style="stop-color:#FFEE00"/>
			</linearGradient>
			<path style="fill:url(#SVGID_00000078026192490291257490000000798815073548939176_);" d="M295.471,97.288
				c-1.015-0.661-2.173-1.284-3.465-1.857c-7.268-3.332-18.584-5.467-31.298-5.467c-12.763,0-24.117,2.154-31.384,5.505
				c-1.225,0.555-2.336,1.158-3.313,1.781c-4.986-14.476,5.945-22.049,10.952-35.73c1.216-3.313,2.317-8.33,0.899-11.642
				c3.858,5.496,6.196,11.087,6.09,17.473c0.509-10.005,8.53-20.498,6.377-30.704c-0.488-2.269-1.293-4.059-2.786-5.62
				c7.907,7.277,18.448,20.919,19.062,31.183c2.03-5.869,1.838-11.986-1.034-17.482c6.654,5.228,7.65,13.002,12.216,19.598
				c0.92-6.262,4.788-11.087,10.313-13.557C275.768,59.806,303.313,75.382,295.471,97.288z"/>
		</g>
		
			<linearGradient id="SVGID_00000101094901052177830120000011592845119512633475_" gradientUnits="userSpaceOnUse" x1="260.5811" y1="38.5863" x2="260.5811" y2="96.0304">
			<stop  offset="0" style="stop-color:#FF1F00"/>
			<stop  offset="1" style="stop-color:#FFEE00"/>
		</linearGradient>
		<path style="fill:url(#SVGID_00000101094901052177830120000011592845119512633475_);" d="M292.006,95.43
			c-2.041-0.939-4.404-1.781-7.028-2.509c-6.711-1.856-15.127-2.958-24.269-2.958c-7.889,0-15.252,0.824-21.427,2.24
			c-3.811,0.881-7.18,1.982-9.957,3.265c-2.92-7.027,1.695-19.914,4.721-24.443c1.761-2.623,3.925-5.006,5.773-7.573
			c-0.545,4.701,4.786,11.633,9.152,14.141c-6.884-9.641,3.571-17.98,3.906-27.401c3.726,9.267,14.467,13.183,16.994,23.791
			c2.327-2.919,2.211-7.563,1.493-11.029c2.979,4.758,6.424,8.348,10.264,12.216c0.135-3.494,0.785-8.061-0.287-10.78
			C289.096,72.854,294.916,85.942,292.006,95.43z"/>
		
			<linearGradient id="SVGID_00000041998819347702438650000004060626900293175446_" gradientUnits="userSpaceOnUse" x1="285.1123" y1="74.7096" x2="285.1123" y2="74.9503">
			<stop  offset="0" style="stop-color:#000000"/>
			<stop  offset="1" style="stop-color:#FF8400"/>
		</linearGradient>
		<path style="fill:url(#SVGID_00000041998819347702438650000004060626900293175446_);" d="M285.121,74.923v0.057
			c0-0.019-0.009-0.038-0.018-0.057C285.112,74.684,285.121,74.684,285.121,74.923z"/>
		
			<linearGradient id="SVGID_00000066489811914207006340000017245557221209719951_" gradientUnits="userSpaceOnUse" x1="262.5154" y1="56.4762" x2="262.5154" y2="88.9731">
			<stop  offset="0" style="stop-color:#000000"/>
			<stop  offset="1" style="stop-color:#FF8400"/>
		</linearGradient>
		<path style="fill:url(#SVGID_00000066489811914207006340000017245557221209719951_);" d="M284.977,92.921
			c-6.711-1.856-15.127-2.958-24.269-2.958c-7.889,0-15.252,0.824-21.427,2.24c-2.355-5.142-1.934-13.327-1.072-16.965
			c0.767,6.289,7.401,10.636,13.365,11.412c-5.629-7.985,1.628-17.913,3.859-25.61c4.844,7.266,11.201,12.666,14.753,20.918
			c2.317-2.202,2.949-5.772,3.121-8.874c2.824,2.863,5.82,7.276,7.075,11.105c3.103-1.771,5.035-5.582,4.738-9.21
			C288.578,83.003,288.051,88.853,284.977,92.921z"/>
	</g>
	<g>
		<g>
			
				<linearGradient id="SVGID_00000169552233082321172000000006596706674851222926_" gradientUnits="userSpaceOnUse" x1="368.4277" y1="256.2234" x2="376.8125" y2="309.0162">
				<stop  offset="0" style="stop-color:#FF1F00"/>
				<stop  offset="1" style="stop-color:#FFEE00"/>
			</linearGradient>
			<path style="fill:url(#SVGID_00000169552233082321172000000006596706674851222926_);" d="M400.822,271.275
				c-5.891-10.507-24.893-22.34-20.874-36.527c-2.806,2.699-5.304,10.915-2.742,17.437c3.075,7.833,18.488,22.658,4.093,29.152
				c-5.309,2.394-11.075-1.042-12.59-6.745c-1.662-6.268,0.541-11.934,6.587-15.52c-4.945-0.288-12.554,4.098-12.724,10.145
				c-1.807-10.729-5.465-27.62-20.645-24.109c7.591,1.914,10.019,6.701,9.107,14.679c-1.382,12.107-8.443,19.27-8.611,31.109
				c-0.186,13.146,16.884,16.522,33.885,16.522C399.381,307.418,410.284,288.153,400.822,271.275z M362.891,271.624
				c-0.005,0.242-0.012,0.248-0.018,0.018c-0.003-0.045-0.009-0.094-0.013-0.139C362.872,271.544,362.879,271.584,362.891,271.624z"
				/>
		</g>
		
			<linearGradient id="SVGID_00000021080093633411710580000013581290296350284462_" gradientUnits="userSpaceOnUse" x1="374.7352" y1="248.321" x2="374.7352" y2="305.9924">
			<stop  offset="0" style="stop-color:#FF1F00"/>
			<stop  offset="1" style="stop-color:#FFEE00"/>
		</linearGradient>
		<path style="fill:url(#SVGID_00000021080093633411710580000013581290296350284462_);" d="M352.856,300.954
			c-5.767-4.467-5.608-14.185-2.732-22.498c1.822-5.266,8.425-10.771,4.326-20.105c7.287,6.941,4.706,13.462,7.832,18.236
			c-0.622-2.815,0.897-7.866,3.932-9.142c-4.694,21.43,22.818,25.48,23.6,4.454c0.163-4.389-1.057-8.036-3.836-11.347
			c14.704,9.959,21.789,29.292,7.635,41.12c-4.155,3.472-10.018,5.266-17.987,5.266
			C369.902,306.939,360.126,306.584,352.856,300.954z"/>
		
			<linearGradient id="SVGID_00000145768326084856293750000003044836871242848644_" gradientUnits="userSpaceOnUse" x1="376.826" y1="271.6556" x2="376.826" y2="304.1861">
			<stop  offset="0" style="stop-color:#000000"/>
			<stop  offset="1" style="stop-color:#FF8400"/>
		</linearGradient>
		<path style="fill:url(#SVGID_00000145768326084856293750000003044836871242848644_);" d="M375.625,306.699
			c-14.283-0.618-28.232-5.425-17.911-32.87c-2.429,13.722,6.025,21.12,11.127,22.672c-3.717-3.916-6.877-6.715-4.447-17.247
			c1.414,11.401,9.26,14.676,16.453,13.542c6.7-1.057,20.279-6.92,11.226-24.352C406.362,282.524,399.607,307.736,375.625,306.699z"
			/>
	</g>
	<g>
		
			<linearGradient id="SVGID_00000116233844777469123580000003947446030011735972_" gradientUnits="userSpaceOnUse" x1="366.4228" y1="356.6462" x2="375.1723" y2="411.7353">
			<stop  offset="0" style="stop-color:#FF1F00"/>
			<stop  offset="1" style="stop-color:#FFEE00"/>
		</linearGradient>
		<path style="fill:url(#SVGID_00000116233844777469123580000003947446030011735972_);" d="M342.249,400.845
			c-6.827-10.333-3.524-20.501-0.003-30.885c2.158-6.361,4.468-14.679-4.148-18.828c18.19,4.468,6.447,22.226,11.87,30.787
			c4.036,6.374,12.379,3.908,13.03-3.276c0.598-6.591-5.759-12.934-7.674-18.971c-2.5-7.876-4.142-13.007,5.641-19.422
			c-6.178,3.653-1.389,12.132,4.896,9.049c5.648-2.768,3.41-10.324-1.162-12.879c9.008,2.314,13.291,8.648,8.031,20.576
			c-1.401,3.18-4.905,20.843,4.911,20.843c4.497,0,2.363-9.149,0.707-11.977c14.003,11.119-2.912,25.48,8.896,25.48
			c12.766,0,2.918-18.894,0.957-23.297c-2.928-6.579-2.234-15.957,4.788-23.935c-3.511,12.128,7.129,23.711,10.121,34.517
			c5.196,18.779-8.847,32.038-33.099,31.863C362.663,410.436,348.416,410.179,342.249,400.845z"/>
		
			<linearGradient id="SVGID_00000160183598221282817360000018037823097467297958_" gradientUnits="userSpaceOnUse" x1="371.8389" y1="334.8496" x2="371.8389" y2="406.1339">
			<stop  offset="0" style="stop-color:#FF1F00"/>
			<stop  offset="1" style="stop-color:#FFEE00"/>
		</linearGradient>
		<path style="fill:url(#SVGID_00000160183598221282817360000018037823097467297958_);" d="M371.287,408.575
			c-16.965-0.458-29.46-3.064-28.849-22.864c0.151-4.893,1.363-9.445,3.255-13.945c0.124-0.11,0.127-0.107,0.008,0.008
			c-5.039,22.647,27.789,23.979,19.251,1.358c-2.281-6.044-8.664-14.66-7.387-21.043c2.872,5.106,5.744,5.106,13.403-2.233
			c-6.064,12.446-1.597,33.509,4.87,33.332c2.471-0.066,3.427,0.177,6.299-7.482c0,10.85-4.787,20.744,5.19,20.63
			c10.546-0.121,9.73-13.42,7.575-20.948c-1.435-5.013-10.213-11.489-3.83-21.383c-3.191,7.978,5.384,14.217,7.66,18.511
			c2.122,4.002,3.05,11.557,2.233,15.637C399.052,397.726,394.903,409.214,371.287,408.575z"/>
		
			<linearGradient id="SVGID_00000156578711552402827030000016526571280152562354_" gradientUnits="userSpaceOnUse" x1="371.7122" y1="375.5421" x2="371.7122" y2="408.6273">
			<stop  offset="0" style="stop-color:#000000"/>
			<stop  offset="1" style="stop-color:#FF8400"/>
		</linearGradient>
		<path style="fill:url(#SVGID_00000156578711552402827030000016526571280152562354_);" d="M344.8,383.045
			c2.233,15.319,25.212,13.723,23.934-3.828c2.872,10.85,7.283,9.619,10.213,5.744c-4.148,20.423,17.553,15.637,19.467,0
			c1.915,13.723-8.296,24.572-26.487,24.572C361.395,409.533,344.161,407.3,344.8,383.045z"/>
	</g>
	<g>
		
			<linearGradient id="SVGID_00000013165004134740263260000010910412357386140070_" gradientUnits="userSpaceOnUse" x1="258.0117" y1="339.9635" x2="258.0117" y2="412.0901">
			<stop  offset="0" style="stop-color:#FF1F00"/>
			<stop  offset="1" style="stop-color:#FFEE00"/>
		</linearGradient>
		<path style="fill:url(#SVGID_00000013165004134740263260000010910412357386140070_);" d="M258.506,395.174
			c-14.999-3.511-19.147-9.256-23.615-17.872c-2.528-4.874-4.787-13.723,3.191-22.02c-3.51,9.573,5.799,14.178,11.808,16.914
			c-13.085-12.445-5.425-33.828,17.553-35.424c-22.659,25.85,12.123,36.119,15.637,54.572c1.275,6.701-0.319,14.679-6.702,19.147
			C277.016,398.684,266.987,397.158,258.506,395.174z"/>
		
			<linearGradient id="SVGID_00000129178680894101860090000015607272112963785384_" gradientUnits="userSpaceOnUse" x1="285.6371" y1="339.9636" x2="285.6371" y2="412.0899">
			<stop  offset="0" style="stop-color:#FF1F00"/>
			<stop  offset="1" style="stop-color:#FFEE00"/>
		</linearGradient>
		<path style="fill:url(#SVGID_00000129178680894101860090000015607272112963785384_);" d="M284.037,403.79
			c5.194-6.17,0-25.212-7.507-31.514c-8.252-6.928-9.226-20.014-0.901-25.331c-2.739,4.228-1.485,11.848,5.535,15.678
			c-4.787-9.895,3.191-22.659,15.318-25.213c-21.382,18.511,16.867,33.972,0.957,55.849
			C294.888,396.769,284.037,403.79,284.037,403.79z"/>
		
			<linearGradient id="SVGID_00000135652434893512863080000015293082083394754218_" gradientUnits="userSpaceOnUse" x1="259.9909" y1="327.8069" x2="259.9909" y2="405.2593">
			<stop  offset="0" style="stop-color:#FF1F00"/>
			<stop  offset="1" style="stop-color:#FFEE00"/>
		</linearGradient>
		<path style="fill:url(#SVGID_00000135652434893512863080000015293082083394754218_);" d="M244.145,385.28
			c-3.036-2.949-5.708-9.995-5.673-14.266c1.964,5.977,14.289,9.798,24.82,10.756c-11.842-6.311-23.935-25.85-6.701-37.659
			c-14.681,22.022,21.381,34.468,24.254,46.595c1.653,6.979-0.001,13.403-2.554,17.233
			C278.61,391.345,255.315,396.13,244.145,385.28z"/>
		
			<linearGradient id="SVGID_00000054961187614587958170000017557814073496920240_" gradientUnits="userSpaceOnUse" x1="285.333" y1="328.8364" x2="285.333" y2="399.1253">
			<stop  offset="0" style="stop-color:#FF1F00"/>
			<stop  offset="1" style="stop-color:#FFEE00"/>
		</linearGradient>
		<path style="fill:url(#SVGID_00000054961187614587958170000017557814073496920240_);" d="M286.59,401.558
			c5.105-12.926-0.385-22.938-6.542-28.244c-4.628-3.988-8.138-10.53-7.181-17.871c0.639,8.299,9.53,11.462,14.361,13.403
			c-5.879-5.194-6.064-19.787,1.595-25.213c-6.702,8.936,4.42,21.623,6.702,27.127c2.613,6.301,3.548,14.741,0.639,21.064
			C294.487,395.467,286.59,401.558,286.59,401.558z"/>
		
			<linearGradient id="SVGID_00000045580398118852582710000013411740621251924157_" gradientUnits="userSpaceOnUse" x1="262.1841" y1="376.8867" x2="262.1841" y2="406.0245">
			<stop  offset="0" style="stop-color:#000000"/>
			<stop  offset="1" style="stop-color:#FF8400"/>
		</linearGradient>
		<path style="fill:url(#SVGID_00000045580398118852582710000013411740621251924157_);" d="M278.452,406.822
			c0.639-12.286-10.213-14.201-22.499-16.594c-4.363-0.85-8.937-4.627-11.781-10.105c4.281,6.595,14.573,4.865,21.28,6.279
			c2.514,0.53,4.439,1.105,6.584,2.532c-0.79-3.664-4.272-6.533-7.095-8.772C274.121,382.797,284.355,392.143,278.452,406.822z"/>
		
			<linearGradient id="SVGID_00000131358791771450635950000008282049829979126915_" gradientUnits="userSpaceOnUse" x1="287.1911" y1="361.6809" x2="287.1911" y2="399.4074">
			<stop  offset="0" style="stop-color:#000000"/>
			<stop  offset="1" style="stop-color:#FF8400"/>
		</linearGradient>
		<path style="fill:url(#SVGID_00000131358791771450635950000008282049829979126915_);" d="M287.228,400.121
			c5.868-9.612,2.058-20.218-5.101-27.757c-1.899-1.998-3.818-3.855-4.804-6.493c2.437,4.798,9.995,5.536,13.811,9.186
			c1.132,1.084,2.255,2.497,2.792,3.948c0.56-2.097-0.313-5.857-1.292-7.71c6.072,7.914,6.047,17.323-1.019,24.528
			c-1.511,1.541-2.887,3.227-4.547,4.616L287.228,400.121z"/>
	</g>
	<g>
		
			<linearGradient id="SVGID_00000137117671557839102750000016414597526937176974_" gradientUnits="userSpaceOnUse" x1="159.8501" y1="238.2971" x2="159.8501" y2="309.5676" gradientTransform="matrix(0.9965 0.0833 -0.0833 0.9965 32.4491 -12.8435)">
			<stop  offset="0" style="stop-color:#FF1F00"/>
			<stop  offset="1" style="stop-color:#FFEE00"/>
		</linearGradient>
		<path style="fill:url(#SVGID_00000137117671557839102750000016414597526937176974_);" d="M176.259,268.041
			c5.086,8.111,5.582,13.677,2.579,20.871c-1.885,4.517-6.027,4.841-9.623-0.185c-2.988-4.174,0.019-10.749,0.961-15.102
			c2.607-12.054,10.897-24.396-7.625-36.994c1.917,2.923,3.583,7.353,3.913,10.655c0.655,6.54-5.01,6.787-9.005,5.732
			c-6.793-1.793-5.871-13.1-2.083-19.629c-6.213,5.365-7.441,11.06-6.414,16.398c1.339,6.957,12.48,17.045,9.108,23.218
			c-5.127,9.384-10.713-1.135-7.431-11.669c-1.864,3.063-4.669,9.697-4.217,13.098c1.032,7.772,10.569,12.936,10.484,20.564
			c-3.408,5.927-9.316-0.052-7.604-9.035c-5.549,14.668,0.637,20.149,15.194,21.285c13.403,1.045,19.765-2.751,24.378-11.973
			C193.653,285.725,182.964,274.994,176.259,268.041z"/>
		
			<linearGradient id="SVGID_00000088819010109910715250000017039648957528609181_" gradientUnits="userSpaceOnUse" x1="166.602" y1="241.8567" x2="166.602" y2="304.3229">
			<stop  offset="0" style="stop-color:#FF1F00"/>
			<stop  offset="0.0219" style="stop-color:#FF2600"/>
			<stop  offset="0.2197" style="stop-color:#FF6200"/>
			<stop  offset="0.41" style="stop-color:#FF9400"/>
			<stop  offset="0.588" style="stop-color:#FFBB00"/>
			<stop  offset="0.7509" style="stop-color:#FFD700"/>
			<stop  offset="0.8934" style="stop-color:#FFE800"/>
			<stop  offset="1" style="stop-color:#FFEE00"/>
		</linearGradient>
		<path style="fill:url(#SVGID_00000088819010109910715250000017039648957528609181_);" d="M182.248,285.333
			c-0.432,4.565-2.023,9.69-7.034,10.943c-12.47,3.12-10.465-13.362-7.943-19.943c3.244-8.464,3.956-15.85,2.686-24.838
			c-0.267,6.131-10.07,12.321-13.538,5.071c0.929,2.496,2.426,4.421,3.704,6.702c2.46,4.385,3.426,9.129,1.085,13.946
			c-2.125,4.371-8.343,6.141-10.25,0.313c0.195,2.932,1.391,4.412,2.958,6.674c2.496,3.603,7.243,7.98,5.272,12.977
			c-2.015,5.108-8.065,2.468-9.833-2.243c-0.824,7.938,8.338,11.73,14.882,11.81C182.504,308.271,186.746,294.842,182.248,285.333z"
			/>
		
			<linearGradient id="SVGID_00000048503107757598702850000011170919628770431877_" gradientUnits="userSpaceOnUse" x1="166.7212" y1="283.6626" x2="166.7212" y2="306.0577">
			<stop  offset="0" style="stop-color:#000000"/>
			<stop  offset="1" style="stop-color:#FF8400"/>
		</linearGradient>
		<path style="fill:url(#SVGID_00000048503107757598702850000011170919628770431877_);" d="M171.305,299.299
			c-10.8-1.502-8.576-22.541-4.753-29.156c-2.698,3.309-3.57,6.536-4.081,10.698c-0.495,4.02-0.333,9.003-5.377,4.857
			c2.334,3.191,4.924,6.599,4.823,10.679c-0.114,4.663-4.827,7.531-9.319,4.754c5.359,4.852,9.063,5.081,13.724,5.35
			c5.496,0.318,12.76-1.36,14.523-10.915C177.61,299.779,174.464,299.737,171.305,299.299z"/>
	</g>
	<g>
		
			<linearGradient id="SVGID_00000131332321295672799510000001152585729526284471_" gradientUnits="userSpaceOnUse" x1="68.8549" y1="45.1444" x2="77.4716" y2="99.3974">
			<stop  offset="0" style="stop-color:#FF1F00"/>
			<stop  offset="1" style="stop-color:#FFEE00"/>
		</linearGradient>
		<path style="fill:url(#SVGID_00000131332321295672799510000001152585729526284471_);" d="M63.393,25.823
			c0,0,27.286,4.069,26.568,36.142c0,0,7.42-4.787,4.787-17.951c0,0,27.525,54.093-21.303,54.093
			c-39.732,0-31.115-32.073-16.515-44.758c-4.148,7.978-3.031,11.728-0.479,19.068c-0.638-6.702,1.798-11.727,4.787-17.233
			c6.064-11.17,8.297-18.829,0.958-22.659c8.617,2.633,12.446,14.84,12.207,22.739C74.403,55.263,81.105,33.721,63.393,25.823z"/>
		
			<linearGradient id="SVGID_00000015322071721200341260000008452172099503505848_" gradientUnits="userSpaceOnUse" x1="74.2585" y1="30.6083" x2="74.2585" y2="94.5654">
			<stop  offset="0" style="stop-color:#FF1F00"/>
			<stop  offset="1" style="stop-color:#FFEE00"/>
		</linearGradient>
		<path style="fill:url(#SVGID_00000015322071721200341260000008452172099503505848_);" d="M75.6,96.67
			c-10.071,0.61-33.988,0-23.217-32.791c-0.479,9.095,3.111,8.617,6.941,16.834c-1.915-23.935,10.531-18.828,9.734-35.743
			c4.468,6.383,5.041,16.092,3.351,22.659c5.939-5.088,13.084-22.977,5.458-31.801c10.817,9.781,10.817,25.418,7.626,37.226
			c6.702-0.638,11.489-7.34,12.127-13.404C103.684,88.692,86.131,96.032,75.6,96.67z"/>
		
			<linearGradient id="SVGID_00000082340462655653323080000001076420937992746662_" gradientUnits="userSpaceOnUse" x1="73.8445" y1="55.8219" x2="73.8445" y2="95.087">
			<stop  offset="0" style="stop-color:#000000"/>
			<stop  offset="1" style="stop-color:#FF8400"/>
		</linearGradient>
		<path style="fill:url(#SVGID_00000082340462655653323080000001076420937992746662_);" d="M73.685,96.352
			c-11.648,0-17.074-3.51-19.467-14.202c4.468,6.861,7.994,7.873,10.851,8.297c-7.34-7.339-0.957-20.903,3.191-26.807
			c-0.241,4.56-2.553,12.287,3.351,18.669C70.813,70.98,83.897,69.385,82.302,53.269c3.67,13.882,1.238,24.789-2.074,29.52
			c4.628-0.639,9.574-2.075,13.244-7.021C90.439,92.682,81.185,96.352,73.685,96.352z"/>
		
			<linearGradient id="SVGID_00000082367409188848676330000014962796342758208931_" gradientUnits="userSpaceOnUse" x1="58.5282" y1="37.3105" x2="60.555" y2="50.0716">
			<stop  offset="0" style="stop-color:#FF1F00"/>
			<stop  offset="1" style="stop-color:#FFEE00"/>
		</linearGradient>
		<path style="fill:url(#SVGID_00000082367409188848676330000014962796342758208931_);" d="M58.207,50.157
			c2.713-2.394,4.608-4.26,3.99-8.178c-0.718-4.548-5.625-5.146-4.189-9.334c-4.069,4.548-1.982,7.41,0.359,10.531
			C59.803,45.09,59.084,48.481,58.207,50.157z"/>
	</g>
	<g>
		
			<linearGradient id="SVGID_00000119819612021788484300000009327037775224616590_" gradientUnits="userSpaceOnUse" x1="265.3849" y1="254.9035" x2="273.8546" y2="308.231">
			<stop  offset="0" style="stop-color:#FF1F00"/>
			<stop  offset="1" style="stop-color:#FFEE00"/>
		</linearGradient>
		<path style="fill:url(#SVGID_00000119819612021788484300000009327037775224616590_);" d="M239.204,273.375
			c-0.109-5.133-0.322-9.022-4.705-12.435c8.721,3.084,17.593,11.992,17.378,22.33c-2.498-23.263,10.639-27.318,16.061-36.906
			c1.293-2.285,4.1-7.021,0.111-11.728c20.424,12.126,3.829,27.764,12.445,38.613c-3.19-12.286,8.735-18.759,16.482-19.944
			c-16.641,10.371,1.773,26.73-3.875,40.849c-3.511,8.775-11.01,13.265-26.932,13.265
			C239.965,307.418,239.598,291.893,239.204,273.375z"/>
		
			<linearGradient id="SVGID_00000057120466419680635620000001098337945316624019_" gradientUnits="userSpaceOnUse" x1="265.3026" y1="234.0776" x2="265.3026" y2="304.2845">
			<stop  offset="0" style="stop-color:#FF1F00"/>
			<stop  offset="1" style="stop-color:#FFEE00"/>
		</linearGradient>
		<path style="fill:url(#SVGID_00000057120466419680635620000001098337945316624019_);" d="M242.198,282.345
			c-0.091-4.281,1.138-11.938-2.519-14.785c6.029,3.457,8.582,5.052,13.051,18.614c-1.276-16.274,7.18-22.658,14.84-29.2
			c2.194-1.873,6.117-8.823,4.786-14.679c11.329,16.115-5.266,23.935,10.531,37.816c-2.712-9.414,0.798-17.073,6.861-19.626
			c-6.701,12.925,4.711,23.007,0,34.784c-2.929,7.32-10.37,11.061-23.652,11.061C244.239,306.33,242.527,297.79,242.198,282.345z"/>
		
			<linearGradient id="SVGID_00000141417353691504873430000009816727604336086161_" gradientUnits="userSpaceOnUse" x1="268.3379" y1="264.794" x2="268.3379" y2="305.6466">
			<stop  offset="0" style="stop-color:#000000"/>
			<stop  offset="1" style="stop-color:#FF8400"/>
		</linearGradient>
		<path style="fill:url(#SVGID_00000141417353691504873430000009816727604336086161_);" d="M270.281,305.005
			c-7.881,0.996-17.855-0.862-20.878-9.125c-0.849-2.317-1.178-4.546-0.979-7.015c-0.005-0.118-0.005-0.118-0.003,0
			c0.968,4.325,6.383,8.002,11.967,8.002c-10.53-11.968,3.671-29.842,12.127-34.945c-4.308,6.701-3.116,11.417-1.133,14.723
			c2.315,3.863,4.311,7.858,5.288,12.285c0.407,1.838,0.427,3.48,0.506,5.367c5.215-2.902,9.7-9.66,8.65-15.928
			c5.593,10.479,1.515,21.979-10.093,25.924c-2.478,0.843-5.088,0.995-7.686,1.029L270.281,305.005z"/>
		
			<linearGradient id="SVGID_00000007410191132046723000000012716950256014676409_" gradientUnits="userSpaceOnUse" x1="247.6046" y1="236.3132" x2="252.0841" y2="264.5172">
			<stop  offset="0" style="stop-color:#FF1F00"/>
			<stop  offset="1" style="stop-color:#FFEE00"/>
		</linearGradient>
		<path style="fill:url(#SVGID_00000007410191132046723000000012716950256014676409_);" d="M249.858,264.235
			c-7.301-2.515-15.877-12.327-6.383-24.055c-1.836,5.106-2.265,10.168,0.278,12.206c-1.077-11.968,12.726-17.473,4.034-26.598
			c4.795,3.473,10.198,6.591,11.165,14.392C260.15,249.834,244.752,258.969,249.858,264.235z"/>
		
			<linearGradient id="SVGID_00000089535966968827010770000014814568834108358835_" gradientUnits="userSpaceOnUse" x1="248.9244" y1="227.4812" x2="248.9244" y2="261.333">
			<stop  offset="0" style="stop-color:#FF1F00"/>
			<stop  offset="1" style="stop-color:#FFEE00"/>
		</linearGradient>
		<path style="fill:url(#SVGID_00000089535966968827010770000014814568834108358835_);" d="M241.361,249.274
			c0.718,3.711,1.795,5.146,3.351,6.463c0.358-17.831,12.565-16.155,8.138-24.294c4.308,4.668,5.146,8.378,2.633,14.84
			c-1.538,3.955-8.976,9.693-7.659,16.036C243.516,259.447,239.686,255.259,241.361,249.274z"/>
		
			<linearGradient id="SVGID_00000180339101170706812060000005775438940475179438_" gradientUnits="userSpaceOnUse" x1="246.7143" y1="259.7766" x2="250.5439" y2="240.5092">
			<stop  offset="0" style="stop-color:#000000"/>
			<stop  offset="1" style="stop-color:#FF8400"/>
		</linearGradient>
		<path style="fill:url(#SVGID_00000180339101170706812060000005775438940475179438_);" d="M246.985,261.242
			c-2.514-2.153-3.642-3.482-4.286-5.665c0.604,1.099,1.749,1.867,2.952,1.937c-0.103-12.666,8.395-13.265,8.515-20.326
			c0.957,4.548,1.196,7.898-1.676,12.087c-1.783,2.603-3.529,4.423-4.7,7.366C247.217,258.078,246.028,259.688,246.985,261.242z"/>
	</g>
	<g>
		
			<linearGradient id="SVGID_00000062902037598939249380000008362454823211084981_" gradientUnits="userSpaceOnUse" x1="74.5397" y1="337.8613" x2="74.5397" y2="412.1377">
			<stop  offset="0" style="stop-color:#FF1F00"/>
			<stop  offset="1" style="stop-color:#FFEE00"/>
		</linearGradient>
		<path style="fill:url(#SVGID_00000062902037598939249380000008362454823211084981_);" d="M51.878,390.387
			c1.436-15.798,15.317-23.438,16.515-39.014c0.718-9.334-2.633-14.6-15.797-16.754c40.45-1.438,29.679,32.79,27.046,40.21
			c4.069-10.053,6.702-12.686,17.712-14.84c-9.574,5.506-7.894,13.082-3.83,22.978c2.546,6.2,8.377,27.525-18.669,27.525
			C59.537,410.492,50.416,406.465,51.878,390.387z"/>
		
			<linearGradient id="SVGID_00000129898094920826290060000016199669288857363374_" gradientUnits="userSpaceOnUse" x1="59.4967" y1="340.6636" x2="59.4967" y2="365.4864">
			<stop  offset="0" style="stop-color:#FF1F00"/>
			<stop  offset="1" style="stop-color:#FFEE00"/>
		</linearGradient>
		<path style="fill:url(#SVGID_00000129898094920826290060000016199669288857363374_);" d="M59.936,364.936
			c9.096-10.292,5.386-24.773-5.983-25.371C64.005,343.395,50.841,355.762,59.936,364.936z"/>
		
			<linearGradient id="SVGID_00000120545394274206793330000008596870449177084079_" gradientUnits="userSpaceOnUse" x1="73.3944" y1="335.8141" x2="73.3944" y2="398.5286">
			<stop  offset="0" style="stop-color:#FF1F00"/>
			<stop  offset="1" style="stop-color:#FFEE00"/>
		</linearGradient>
		<path style="fill:url(#SVGID_00000120545394274206793330000008596870449177084079_);" d="M56.665,397.567
			c-2.933-11.197,8.73-21.389,13.407-30.663c2.871-5.694,4.053-11.085,2.467-17.356c8.572,6.934,2.807,33.096,9.258,36.291
			c-2.154-8.377,0.819-12.973,4.81-18.333c-4.488,5.564,1.653,14.819,3.442,20.43c1.926,6.045-0.832,20.642-15.672,20.642
			C69.386,408.577,59.958,410.138,56.665,397.567z"/>
		
			<linearGradient id="SVGID_00000072271840857887425910000005347689628341166721_" gradientUnits="userSpaceOnUse" x1="73.689" y1="368.5448" x2="73.689" y2="404.9154">
			<stop  offset="0" style="stop-color:#000000"/>
			<stop  offset="1" style="stop-color:#FF8400"/>
		</linearGradient>
		<path style="fill:url(#SVGID_00000072271840857887425910000005347689628341166721_);" d="M71.983,407.62
			c-9.005,0-14.172-8.171-12.446-15.079c2.495-9.986,11.489-15.558,16.276-31.834c-2.154,15.558-0.718,26.329,8.617,30.158
			c0.478-3.111,0.957-5.026-0.718-10.053C92.567,395.174,88.02,407.62,71.983,407.62z"/>
		
			<linearGradient id="SVGID_00000089541653416327400350000002131511441488018611_" gradientUnits="userSpaceOnUse" x1="60.9593" y1="337.006" x2="60.9593" y2="360.7158">
			<stop  offset="0" style="stop-color:#FF1F00"/>
			<stop  offset="1" style="stop-color:#FFEE00"/>
		</linearGradient>
		<path style="fill:url(#SVGID_00000089541653416327400350000002131511441488018611_);" d="M60.016,364.538
			c-6.064-6.063,2.154-18.829-2.075-22.34C63.606,344.432,67.675,356.081,60.016,364.538z"/>
		
			<linearGradient id="SVGID_00000033337842451506594770000001868493320810038174_" gradientUnits="userSpaceOnUse" x1="60.7634" y1="349.6783" x2="60.7634" y2="363.285">
			<stop  offset="0" style="stop-color:#000000"/>
			<stop  offset="1" style="stop-color:#FF8400"/>
		</linearGradient>
		<path style="fill:url(#SVGID_00000033337842451506594770000001868493320810038174_);" d="M59.857,364.138
			c-2.64-3.864-1.585-8.071-0.08-12.046c0.492-1.3,1.037-3.432,0.559-5.346c3.75,4.229,3.72,9.78,1.066,14.383
			c-0.576,0.999-1.121,2.064-1.465,3.168L59.857,364.138z"/>
	</g>
	<g>
		
			<linearGradient id="SVGID_00000147935371948299451910000004543092986169022386_" gradientUnits="userSpaceOnUse" x1="164.068" y1="151.7933" x2="172.3469" y2="203.9193">
			<stop  offset="0" style="stop-color:#FF1F00"/>
			<stop  offset="1" style="stop-color:#FFEE00"/>
		</linearGradient>
		<path style="fill:url(#SVGID_00000147935371948299451910000004543092986169022386_);" d="M146.62,193.295
			c-6.223-17.233,11.968-31.115,1.915-42.604c7.957,3.876,14.042,10.851,15.478,19.946c-2.872-18.35,9.102-40.987,20.903-41.487
			c-19.386,12.012,18.816,47.915,4.309,65.103C179.006,206.358,151.347,206.383,146.62,193.295z"/>
		
			<linearGradient id="SVGID_00000085940695815778316940000014963811245895200400_" gradientUnits="userSpaceOnUse" x1="169.5885" y1="137.7871" x2="169.5885" y2="195.5767">
			<stop  offset="0" style="stop-color:#FF1F00"/>
			<stop  offset="1" style="stop-color:#FFEE00"/>
		</linearGradient>
		<path style="fill:url(#SVGID_00000085940695815778316940000014963811245895200400_);" d="M151.248,196.007
			c-4.68-14.289,9.254-23.297,3.51-34.786c6.106,2.975,9.415,10.531,10.373,19.467c-0.958-17.233,4.467-30.477,13.083-34.785
			c-8.138,15.318,18.596,37.089,8.298,49.625C179.172,204.465,154.279,205.262,151.248,196.007z"/>
		
			<linearGradient id="SVGID_00000029740859723485798650000012617665382884913799_" gradientUnits="userSpaceOnUse" x1="169.8984" y1="146.1851" x2="169.8984" y2="196.4442">
			<stop  offset="0" style="stop-color:#000000"/>
			<stop  offset="1" style="stop-color:#FF8400"/>
		</linearGradient>
		<path style="fill:url(#SVGID_00000029740859723485798650000012617665382884913799_);" d="M154.919,197.763
			c-3.381-10.239,7.15-16.016,3.031-24.254c4.947,2.712,7.659,6.542,8.935,15.158c-0.797-9.574-2.074-22.658,6.702-35.423
			c-4.627,16.436,17.393,30.317,10.691,42.764C180.145,203.683,157.32,205.034,154.919,197.763z"/>
		
			<linearGradient id="SVGID_00000028322741429936237140000010938297759065998977_" gradientUnits="userSpaceOnUse" x1="159.2573" y1="130.0828" x2="163.4071" y2="156.2112">
			<stop  offset="0" style="stop-color:#FF1F00"/>
			<stop  offset="1" style="stop-color:#FFEE00"/>
		</linearGradient>
		<path style="fill:url(#SVGID_00000028322741429936237140000010938297759065998977_);" d="M162.058,155.837
			c-9.454-8.018-10.454-15.172-9.725-19.686c0.429-2.653,1.714-4.538,3.483-6.507c-2.054,2.822,0.404,6.306,1.437,8.944
			c-1.562-2.977,1.555-6.893,2.936-9.466c1.835-3.421,1.647-5.377,0.688-9.019c5.499,3.688,8.524,9.479,6.69,16.117
			C166.202,141.155,160.622,145.904,162.058,155.837z"/>
		
			<linearGradient id="SVGID_00000080207709840606735760000015507454919943773849_" gradientUnits="userSpaceOnUse" x1="159.14" y1="125.9414" x2="161.1202" y2="151.3346">
			<stop  offset="0" style="stop-color:#FF1F00"/>
			<stop  offset="1" style="stop-color:#FFEE00"/>
		</linearGradient>
		<path style="fill:url(#SVGID_00000080207709840606735760000015507454919943773849_);" d="M154.884,137.569
			c0.472,2.949,2.269,5.08,4.044,5.923c-2.061-6.21,2.108-8.225,4.809-13.033c0.645-1.149,1.102-2.585,0.954-3.906
			c0.626,3.911,1.552,4.87,0.957,8.819c-0.604,4.014-6.422,12.446-4.787,17.353C158.468,150.691,152.005,143.869,154.884,137.569z"
			/>
	</g>
	<g>
		
			<linearGradient id="SVGID_00000033343549772219263410000014742924557160007866_" gradientUnits="userSpaceOnUse" x1="67.3387" y1="254.868" x2="76.0827" y2="309.9225">
			<stop  offset="0" style="stop-color:#FF1F00"/>
			<stop  offset="1" style="stop-color:#FFEE00"/>
		</linearGradient>
		<path style="fill:url(#SVGID_00000033343549772219263410000014742924557160007866_);" d="M89.817,260.769
			c5.568,10.08-0.267,16.573-1.702,21.491c1.322-16.626-10.245-28.036-3.966-37.49c-15.202,11.735-3.963,23.853-10.244,24.124
			c-7.602,0.326-9.585-27.384,3.966-36.186c-8.123,3.58-20.821,11.736-18.178,40.749c-1.651-13.365-3.965-20.863-12.59-23.993
			c4.989,5.412,5.32,15.518,2.016,23.993c-3.924,10.063-7.265,17.698-0.662,27.709c2.114,3.204,6.33,5.162,11.327,6.252
			c-2.081-1.633-3.33-3.66-3.33-5.864c0-5.376,7.337-9.733,16.39-9.733c9.052,0,16.39,4.357,16.39,9.733
			c0,2.039-1.06,3.931-2.865,5.495c1.749-0.403,3.156-0.855,4.061-1.32C100.043,300.799,107.284,282.584,89.817,260.769z"/>
		
			<linearGradient id="SVGID_00000090293094525826590310000009624651456563429769_" gradientUnits="userSpaceOnUse" x1="72.97" y1="242.8667" x2="72.97" y2="304.7586">
			<stop  offset="0" style="stop-color:#FF1F00"/>
			<stop  offset="1" style="stop-color:#FFEE00"/>
		</linearGradient>
		<path style="fill:url(#SVGID_00000090293094525826590310000009624651456563429769_);" d="M94.395,272.805
			c0.331,9.127-6.279,13.04-10.246,19.886c2.313-14.343,1.653-23.471-4.313-32.81c1.67,24.334-19.812,13.901-14.193-6.961
			c-6.28,13.365-5.288,20.212-3.967,29.991c-4.296-4.238-6.058-12.796-6.939-17.93c-0.331,9.128-3.929,12.604-5.289,17.603
			c-3.667,13.483,0.91,19.325,7.74,21.858c-0.477-0.912-0.734-1.883-0.734-2.889c0-5.376,7.337-9.733,16.39-9.733
			c9.052,0,16.39,4.357,16.39,9.733c0,0.495-0.082,0.979-0.203,1.455C99.847,296.484,99.396,281.968,94.395,272.805z"/>
		
			<linearGradient id="SVGID_00000121249406912346001100000017886087399093585551_" gradientUnits="userSpaceOnUse" x1="74.002" y1="271.3956" x2="74.002" y2="297.6127">
			<stop  offset="0" style="stop-color:#000000"/>
			<stop  offset="1" style="stop-color:#FF8400"/>
		</linearGradient>
		<path style="fill:url(#SVGID_00000121249406912346001100000017886087399093585551_);" d="M82.558,293.726
			c4.978-1.698,10.826-4.994,12.966-12.118c0.6,9.5-1.864,16.157-6.318,20.273c0.006-0.108,0.028-0.216,0.028-0.326
			C89.234,298.341,86.601,295.499,82.558,293.726z M72.844,291.82c2.712,0,5.264,0.397,7.517,1.09
			c4.434-4.92,3.693-11.622,0.364-19.919c-1.11,6.702-1.583,8.311-8.14,8.936c-4.808,0.459-7.77-4.788-7.03-16.915
			c-2.96,11.489-4.07,17.872-1.85,22.021c-7.03-2.873-8.431-6.565-7.771-13.085c-5.614,12.022-3.956,20.516,0.789,25.888
			C58.092,295.28,64.78,291.82,72.844,291.82z"/>
	</g>
</g>
</svg>
